<svg width="16" height="16" viewBox="0 0 16 16" fill="none" xmlns="http://www.w3.org/2000/svg">
<path d="M13.6471 2.35294C12.9076 1.61345 12.0336 1.0084 11.0924 0.605043C10.084 0.201682 9.07563 0 8 0C6.92437 0 5.84873 0.201682 4.90756 0.605043C3.89915 1.0084 3.09244 1.61345 2.35294 2.35294C1.61345 3.09244 1.0084 3.96639 0.605038 4.90756C0.201677 5.91597 0 6.92437 0 8C0 9.07563 0.201677 10.1513 0.605038 11.0924C1.0084 12.1008 1.61345 12.9076 2.35294 13.6471C3.09244 14.3866 3.96638 14.9916 4.90756 15.395C5.84873 15.7983 6.92437 16 8 16C9.07563 16 10.1513 15.7983 11.0924 15.395C12.0336 14.9916 12.9076 14.3866 13.6471 13.6471C14.3866 12.9076 14.9916 12.0336 15.395 11.0924C15.7983 10.1513 16 9.07563 16 8C16 6.92437 15.7983 5.84874 15.395 4.90756C14.9244 3.96639 14.3866 3.09244 13.6471 2.35294Z" fill="#F5044C"/>
</svg>
